<svg xmlns="http://www.w3.org/2000/svg" viewBox="0 0 240 120" preserveAspectRatio="xMidYMid slice">
  <defs>
    <linearGradient id="bg" x1="0" y1="0" x2="1" y2="1">
      <stop offset="0%" stop-color="#1d1d1d"></stop>
      <stop offset="50%" stop-color="#0e0e0e"></stop>
      <stop offset="100%" stop-color="#1a1212"></stop>
    </linearGradient>
    <radialGradient id="glow" cx="0.35" cy="0.55" r="0.65">
      <stop offset="0%" stop-color="#c8181f" stop-opacity="0.32"></stop>
      <stop offset="60%" stop-color="#c8181f" stop-opacity="0"></stop>
    </radialGradient>
    <filter id="blur" x="-10%" y="-10%" width="120%" height="120%">
      <feGaussianBlur stdDeviation="0.6"></feGaussianBlur>
    </filter>
  </defs>
  <rect width="240" height="120" fill="url(#bg)"></rect>
  <rect width="240" height="120" fill="url(#glow)"></rect>
  <g fill="none" filter="url(#blur)">
    <path d="M-20 78 C 30 36, 60 110, 110 64 S 200 28, 260 76" stroke="#ffffff" stroke-opacity="0.85" stroke-width="1.2"></path>
    <path d="M-20 92 C 30 52, 60 124, 110 78 S 200 44, 260 92" stroke="#ffffff" stroke-opacity="0.5" stroke-width="1"></path>
    <path d="M-20 64 C 30 22, 60 98, 110 50 S 200 14, 260 60" stroke="#ffffff" stroke-opacity="0.32" stroke-width="0.9"></path>
    <path d="M-20 104 C 30 70, 60 138, 110 96 S 200 60, 260 110" stroke="#ffffff" stroke-opacity="0.22" stroke-width="0.8"></path>
  </g>
  <g>
    <circle cx="52" cy="58" r="2" fill="#ffffff" opacity="0.9"></circle>
    <circle cx="166" cy="72" r="1.4" fill="#ffffff" opacity="0.7"></circle>
    <circle cx="210" cy="56" r="1.1" fill="#c8181f"></circle>
  </g>
  
  <rect width="240" height="120" fill="url(#bg)" opacity="0"></rect>
  <rect width="240" height="120" fill="black" opacity="0.18" mask="url(#fade)"></rect>
</svg>