<svg xmlns="http://www.w3.org/2000/svg" viewBox="0 0 240 120" preserveAspectRatio="xMidYMid slice">
  <defs>
    <linearGradient id="bg2" x1="0" y1="0" x2="0" y2="1">
      <stop offset="0%" stop-color="#1c1c1c"></stop>
      <stop offset="100%" stop-color="#0c0c0c"></stop>
    </linearGradient>
    <linearGradient id="desk" x1="0" y1="0" x2="0" y2="1">
      <stop offset="0%" stop-color="#272727"></stop>
      <stop offset="100%" stop-color="#151515"></stop>
    </linearGradient>
  </defs>
  <rect width="240" height="120" fill="url(#bg2)"></rect>
  
  <g stroke="#ffffff" stroke-opacity="0.04" stroke-width="0.5">
    <line x1="0" y1="30" x2="240" y2="30"></line>
    <line x1="0" y1="60" x2="240" y2="60"></line>
    <line x1="0" y1="90" x2="240" y2="90"></line>
    <line x1="60" y1="0" x2="60" y2="120"></line>
    <line x1="120" y1="0" x2="120" y2="120"></line>
    <line x1="180" y1="0" x2="180" y2="120"></line>
  </g>
  
  <rect x="0" y="74" width="240" height="46" fill="url(#desk)"></rect>
  <line x1="0" y1="74" x2="240" y2="74" stroke="#ffffff" stroke-opacity="0.08"></line>
  
  <g>
    <rect x="68" y="36" width="104" height="40" rx="2" fill="#0a0a0a" stroke="#ffffff" stroke-opacity="0.25"></rect>
    <rect x="72" y="40" width="96" height="32" fill="#1a1a1a"></rect>
    
    <g stroke="#ffffff" stroke-opacity="0.6" stroke-width="0.8" fill="none">
      <polyline points="76,66 88,58 100,62 112,50 124,54 136,46 148,52 164,44"></polyline>
    </g>
    <g fill="#c8181f">
      <rect x="76" y="48" width="2" height="20"></rect>
      <rect x="84" y="54" width="2" height="14"></rect>
      <rect x="92" y="50" width="2" height="18"></rect>
      <rect x="100" y="58" width="2" height="10"></rect>
    </g>
    
    <path d="M60 76 L180 76 L186 82 L54 82 Z" fill="#161616" stroke="#ffffff" stroke-opacity="0.15"></path>
  </g>
  
  <g>
    <ellipse cx="206" cy="80" rx="11" ry="3" fill="#0a0a0a"></ellipse>
    <path d="M196 80 Q196 96, 206 98 Q216 96, 216 80 Z" fill="#1a1a1a" stroke="#ffffff" stroke-opacity="0.18"></path>
    <ellipse cx="206" cy="80" rx="9" ry="2" fill="#3a1414"></ellipse>
    
    <path d="M202 70 Q204 66, 202 62 M208 70 Q210 66, 208 62" stroke="#ffffff" stroke-opacity="0.25" fill="none" stroke-linecap="round"></path>
  </g>
  
  <g>
    <rect x="14" y="86" width="38" height="22" rx="1" fill="#0e0e0e" stroke="#ffffff" stroke-opacity="0.18"></rect>
    <line x1="18" y1="92" x2="48" y2="92" stroke="#ffffff" stroke-opacity="0.3"></line>
    <line x1="18" y1="97" x2="44" y2="97" stroke="#ffffff" stroke-opacity="0.22"></line>
    <line x1="18" y1="102" x2="42" y2="102" stroke="#ffffff" stroke-opacity="0.18"></line>
    <rect x="50" y="84" width="14" height="2" rx="1" fill="#c8181f" transform="rotate(20 57 85)"></rect>
  </g>
  
  <radialGradient id="v" cx="0.5" cy="0.5" r="0.7">
    <stop offset="60%" stop-color="black" stop-opacity="0"></stop>
    <stop offset="100%" stop-color="black" stop-opacity="0.5"></stop>
  </radialGradient>
  <rect width="240" height="120" fill="url(#v)"></rect>
</svg>